<?xml version="1.0" encoding="UTF-8"?>
<svg id="a" data-name="Layer 1" xmlns="http://www.w3.org/2000/svg" xmlns:xlink="http://www.w3.org/1999/xlink" viewBox="0 0 30.3 26.69">
  <defs>
    <clipPath id="b">
      <path d="m21.68,25.68H7.98c-1.73,0-3.14-1.41-3.14-3.14v-12.56C4.84,4.49,9.34,0,14.83,0h0c5.49,0,9.99,4.49,9.99,9.99v12.56c0,1.73-1.41,3.14-3.14,3.14Z" style="fill: #f7b319;"/>
    </clipPath>
  </defs>
  <g>
    <path d="m21.68,25.68H7.98c-1.73,0-3.14-1.41-3.14-3.14v-12.56C4.84,4.49,9.34,0,14.83,0h0c5.49,0,9.99,4.49,9.99,9.99v12.56c0,1.73-1.41,3.14-3.14,3.14Z" style="fill: #f7b319;"/>
    <g style="clip-path: url(#b);">
      <g>
        <path d="m24.45,21.71c-2.85-.91-6.43-.81-8.94.17-.72.28-.28,1.3.46,1.06.06-.02.12-.04.19-.06,4.29-1.42,8.95-.54,11.52,2.17.43.46.76.95.98,1.46h1.65c-.73-2.01-2.72-3.8-5.85-4.8Z" style="fill: #fff;"/>
        <path d="m22.96,23.41c-1.95-.62-4.41-.55-6.13.13-.5.2-.21.89.3.73.05-.02.1-.03.16-.05,2.93-.97,6.12-.37,7.87,1.48.3.31.52.65.67,1h1.13c-.5-1.37-1.86-2.6-4-3.28Z" style="fill: #fff;"/>
        <path d="m17.52,25.02c-1.27-.79-2.52-1.58-3.8-2.35-4.12-2.49-10.03-2.03-13.39,1.04-.05.05-.1.09-.15.14-.42.42-.03,1.15.55,1,.28-.07.54-.22.78-.44,2.9-2.59,7.74-2.97,11.28-.88,1.33.78,2.58,1.64,3.9,2.42.32.19.64.36.97.51.08.04.17.06.26.06h0c.62,0,.82-.83.27-1.11-.23-.12-.45-.24-.66-.38Z" style="fill: #fff;"/>
        <path d="m10.62,23.66c-1.44-.71-3.33-.79-4.92-.28-.45.14-.34.82.14.8h.02s.05,0,.07-.01c2.77-.62,4.1.32,5.33,1.17.19.13,1.29.95,1.68,1.22.07.05.15.07.23.07h.85c.4,0,.56-.52.23-.75-1.19-.79-2.69-1.77-3.62-2.23Z" style="fill: #fff;"/>
      </g>
    </g>
  </g>
  <path d="m22.05,5.87c-1.03-1.44-2.49-2.56-4.16-3.18-1.75-.64-3.7-.72-5.49-.21-1.72.49-3.27,1.51-4.41,2.89-1.15,1.4-1.86,3.14-2,4.95-.14,1.84.29,3.7,1.25,5.27.93,1.53,2.31,2.76,3.94,3.5.24.11.48.2.72.29.01,0,.02,0,.04.01.09.03.17.06.26.09.04.01.07.02.11.03.07.02.13.04.2.06.07.02.14.03.21.05.04,0,.07.02.11.03.33.08.66.13,1,.17.06,0,.12.01.18.02.05,0,.1.01.15.01.81.06,1.63.01,2.43-.15,1.77-.35,3.4-1.26,4.65-2.56,1.24-1.3,2.08-2.98,2.35-4.75.07-.45.1-.91.11-1.37,0-1.84-.58-3.65-1.64-5.14Zm-.95-.88c1.23,1.28,2.04,2.92,2.32,4.67.09.58.18,1.26.07,1.85-.08.42-.4.75-.72,1.01-.24.19-.5.36-.76.51-.17.1-.33.18-.49.29-.08.06-.18.1-.28.09-.15-.02-.24-.15-.36-.23-.16-.11-.31-.23-.47-.35-.3-.23-.59-.48-.88-.73-1.17-1-2.05-2.1-2.75-3.47-.36-.71-.81-1.17-1.68-.7-.35.19-.6.53-.87.81-.46.47-1.11.91-1.76,1.04-.44.09-1.57.13-1.49-.54.02-.19.19-.47.32-.6.41-.38,1.03-.55,1.46-.97.39-.37.54-.88.89-1.27.47-.51,1.31-.54,1.9-.86.56-.3,1.04-.72,1.55-1.08.77-.55,1.86-1.08,2.78-.59.49.26.82.73,1.2,1.12Zm-9.43,12.75c-.12.1-.24.19-.41.2-.24.02-.49-.08-.68-.23-.27-.21-.47-.64-.18-.93.04-.04.08-.07.13-.1.17-.11.34-.22.49-.36.12-.11.23-.26.39-.32.18-.07.4,0,.56.11.21.14.35.38.35.64,0,.22-.11.42-.24.59-.11.15-.25.27-.4.38,0,0-.01,0-.02.01Zm.96-.17c.16-.11.37-.1.55-.01.24.12.41.36.45.62.03.24-.19.6-.38.74-.23.19-.59.19-.85.07-.15-.07-.28-.17-.36-.31-.05-.09-.1-.2-.11-.31,0-.16.13-.26.24-.35.15-.12.26-.27.4-.41.02-.02.04-.04.06-.05Zm-2.46-1.26c-.07.05-.15.1-.23.14-.24.11-.54.13-.79.03-.23-.1-.41-.33-.53-.55-.06-.12-.11-.25-.13-.39-.02-.15-.02-.3.11-.39.1-.07.21-.12.31-.19.11-.07.21-.15.31-.23.11-.09.22-.19.32-.3.13-.13.18-.28.39-.31.21-.03.43.01.62.12.24.14.44.39.51.66.02.08.03.16.03.24,0,.27-.14.51-.33.7-.09.1-.2.19-.31.27-.1.07-.19.15-.29.22Zm-1.86-1.61c-.2.12-.44.13-.66.07-.18-.05-.35-.15-.49-.28-.36-.33-.47-.92-.07-1.28.05-.05.11-.09.17-.13.08-.07.17-.13.25-.2.18-.14.36-.28.55-.39.35-.21.77-.34,1.12-.06.04.03.07.06.1.1.15.17.27.37.29.6.02.19-.04.39-.13.55-.25.44-.69.7-1.08.99-.01,0-.03.02-.04.03Zm-.93-8.19c.35-.57.76-1.1,1.22-1.58.25-.26.52-.51.8-.74.36-.3.71-.59,1.21-.55.17.01.34.03.5.06.34.05.67.14.99.24.66.22,1.29.53,1.86.92.21.15.42.3.62.47-.42.13-.84.26-1.17.55-.52.45-.69,1.13-1.23,1.58-.51.42-1.13.52-1.48,1.09-.78,1.27.43,1.91,1.61,1.79.7-.07,1.35-.44,1.9-.86.44-.34.77-.96,1.3-1.14.47-.16.54.03.72.38.16.31.32.63.49.94.49.86,1.1,1.64,1.84,2.31.63.57,1.29,1.13,1.98,1.63.11.08.23.15.35.23.11.07.24.1.31.22.03.05.04.12.04.18,0,.4-.33.75-.69.88-.17.06-.36.07-.54.04-.2-.04-.35-.14-.52-.24-.22-.13-.44-.27-.65-.41-.43-.29-.83-.61-1.22-.96-.77-.69-1.46-1.48-2.05-2.33-.11-.16-.22-.33-.33-.5-.18-.3-.65-.02-.47.27.55.88,1.19,1.7,1.93,2.44.38.38.78.74,1.2,1.07.25.19.5.39.76.56.19.13.41.21.6.34.13.09.16.22.13.37-.06.33-.3.61-.6.75-.24.11-.51.13-.77.06-.21-.06-.42-.21-.61-.34-.09-.06-.18-.11-.27-.17-1.22-.83-2.26-1.9-3.13-3.08-.23-.32-.45-.65-.66-.98-.18-.3-.65-.02-.47.27.54.88,1.17,1.71,1.88,2.46.38.4.78.78,1.21,1.13.22.18.44.35.66.51.18.13.38.26.59.37.14.07.35.13.37.32.02.22-.21.5-.37.64-.29.27-.73.33-1.1.23-.2-.05-.38-.15-.54-.27-.07-.06-.13-.12-.21-.17-.09-.06-.18-.12-.27-.18-.21-.16-.42-.33-.63-.5-.41-.35-.81-.71-1.18-1.1-.66-.68-1.25-1.42-1.77-2.21-.19-.29-.66-.02-.47.27.39.6.82,1.16,1.29,1.7s.98,1.05,1.52,1.52c.23.2.46.39.69.57.12.09.24.18.36.27.07.05.15.09.23.14.05.03.1.08.12.14.02.05.01.1,0,.15-.04.3-.21.59-.51.7-.27.09-.57.03-.83-.05.21-.36.32-.69.12-1.12-.22-.47-.69-.85-1.21-.83.03-.16.02-.33-.03-.49-.17-.54-.66-.99-1.22-1,.06-.22.06-.45-.01-.69-.21-.67-.83-1.23-1.52-1.2.1-.39.04-.81-.28-1.24-.3-.41-.78-.71-1.31-.61-.29.06-.55.21-.78.38-.13.09-.25.18-.37.28-.09.07-.26.28-.37.3-.19.04-.45-.44-.54-.6-.3-.56-.3-1.12-.25-1.74.06-.74.21-1.48.46-2.18.2-.56.45-1.11.76-1.62Z" style="fill: #fff;"/>
</svg>